<?xml version="1.0" encoding="UTF-8"?><svg id="Capa_1" xmlns="http://www.w3.org/2000/svg" xmlns:xlink="http://www.w3.org/1999/xlink" viewBox="0 0 1683.78 911.2"><defs><style>.cls-1{stroke-width:10px;}.cls-1,.cls-2,.cls-3{stroke:#fff;}.cls-1,.cls-2,.cls-3,.cls-4,.cls-5{fill:none;stroke-miterlimit:10;}.cls-2{stroke-width:6.88px;}.cls-3,.cls-4{stroke-width:40px;}.cls-4{stroke:#3c3c3b;}.cls-6,.cls-7,.cls-8{isolation:isolate;}.cls-5{stroke:#731f2d;stroke-width:35px;}.cls-7{font-family:Coda-Regular, Coda;font-size:20px;}.cls-7,.cls-9,.cls-8{fill:#fff;}.cls-10{fill:url(#Degradado_sin_nombre);}.cls-11{fill:#731f2d;}.cls-8{font-family:Coda-ExtraBold, Coda;font-size:60px;font-weight:700;}.cls-12{opacity:.8;}.cls-13{fill:#f3ce48;}</style><linearGradient id="Degradado_sin_nombre" x1="505.01" y1="755.07" x2="561.74" y2="755.07" gradientTransform="translate(0 -664.04)" gradientUnits="userSpaceOnUse"><stop offset="0" stop-color="#f3ce48"/><stop offset="1" stop-color="#731f2d"/></linearGradient></defs><rect x="-13.26" y="-10.72" width="1706.88" height="937.62"/><rect class="cls-9" x="52.91" y="41.82" width="26.35" height="17.38"/><rect class="cls-11" x="52.91" y="82.42" width="26.35" height="17.38"/><g class="cls-6"><g class="cls-6"><text class="cls-7" transform="translate(95.73 56.44)"><tspan x="0" y="0">P</tspan></text></g><g class="cls-6"><text class="cls-7" transform="translate(108.08 56.44)"><tspan x="0" y="0">r</tspan></text></g><g class="cls-6"><text class="cls-7" transform="translate(114.91 56.44)"><tspan x="0" y="0">omedio anual</tspan></text></g><g class="cls-6"><text class="cls-7" transform="translate(240.04 56.44)"><tspan x="0" y="0">d</tspan></text></g><g class="cls-6"><text class="cls-7" transform="translate(251.4 56.44)"><tspan x="0" y="0">e días</tspan></text></g><g class="cls-6"><text class="cls-7" transform="translate(307.93 56.44)"><tspan x="0" y="0">d</tspan></text></g><g class="cls-6"><text class="cls-7" transform="translate(319.29 56.44)"><tspan x="0" y="0">e más</tspan></text></g><g class="cls-6"><text class="cls-7" transform="translate(376.28 56.44)"><tspan x="0" y="0">d</tspan></text></g><g class="cls-6"><text class="cls-7" transform="translate(387.64 56.44)"><tspan x="0" y="0">e 40°C</tspan></text></g></g><g class="cls-6"><g class="cls-6"><text class="cls-7" transform="translate(95.73 98.15)"><tspan x="0" y="0">P</tspan></text></g><g class="cls-6"><text class="cls-7" transform="translate(108.08 98.15)"><tspan x="0" y="0">r</tspan></text></g><g class="cls-6"><text class="cls-7" transform="translate(114.91 98.15)"><tspan x="0" y="0">omedio anual</tspan></text></g><g class="cls-6"><text class="cls-7" transform="translate(240.04 98.15)"><tspan x="0" y="0">d</tspan></text></g><g class="cls-6"><text class="cls-7" transform="translate(251.4 98.15)"><tspan x="0" y="0">e días</tspan></text></g><g class="cls-6"><text class="cls-7" transform="translate(307.93 98.15)"><tspan x="0" y="0">d</tspan></text></g><g class="cls-6"><text class="cls-7" transform="translate(319.29 98.15)"><tspan x="0" y="0">e sequía</tspan></text></g></g><g class="cls-6"><g class="cls-6"><text class="cls-7" transform="translate(577.62 58.06)"><tspan x="0" y="0">P</tspan></text></g><g class="cls-6"><text class="cls-7" transform="translate(589.97 58.06)"><tspan x="0" y="0">r</tspan></text></g><g class="cls-6"><text class="cls-7" transform="translate(596.8 58.06)"><tspan x="0" y="0">esipitación anual p</tspan></text></g><g class="cls-6"><text class="cls-7" transform="translate(764.89 58.06)"><tspan x="0" y="0">r</tspan></text></g><g class="cls-6"><text class="cls-7" transform="translate(771.71 58.06)"><tspan x="0" y="0">omedio (mm/día)</tspan></text></g></g><g class="cls-6"><g class="cls-6"><text class="cls-7" transform="translate(577.62 97.13)"><tspan x="0" y="0">Ni</tspan></text></g><g class="cls-6"><text class="cls-7" transform="translate(596.7 97.13)"><tspan x="0" y="0">v</tspan></text></g><g class="cls-6"><text class="cls-7" transform="translate(606.49 97.13)"><tspan x="0" y="0">eles</tspan></text></g><g class="cls-6"><text class="cls-7" transform="translate(647.61 97.13)"><tspan x="0" y="0">d</tspan></text></g><g class="cls-6"><text class="cls-7" transform="translate(658.98 97.13)"><tspan x="0" y="0">e aumento</tspan></text></g><g class="cls-6"><text class="cls-7" transform="translate(757.87 97.13)"><tspan x="0" y="0">d</tspan></text></g><g class="cls-6"><text class="cls-7" transform="translate(769.24 97.13)"><tspan x="0" y="0">e tempe</tspan></text></g><g class="cls-6"><text class="cls-7" transform="translate(841.57 97.13)"><tspan x="0" y="0">r</tspan></text></g><g class="cls-6"><text class="cls-7" transform="translate(848.43 97.13)"><tspan x="0" y="0">atu</tspan></text></g><g class="cls-6"><text class="cls-7" transform="translate(877.46 97.13)"><tspan x="0" y="0">r</tspan></text></g><g class="cls-6"><text class="cls-7" transform="translate(884.33 97.13)"><tspan x="0" y="0">a</tspan></text></g></g><path class="cls-10" d="M561.74,91.03c0,5.77-5.84,10.45-13.04,10.45h-30.66c-7.2,0-13.03-4.68-13.03-10.45s5.83-10.44,13.03-10.44h30.66c7.2,0,13.04,4.67,13.04,10.44Z"/><line class="cls-1" x1="505.08" y1="49.07" x2="534.53" y2="49.07"/><polygon class="cls-9" points="530.15 64.03 556.06 49.08 530.15 34.12 530.15 64.03"/><circle class="cls-11" cx="1213.85" cy="530.44" r="201.91"/><g class="cls-6"><g class="cls-6"><text class="cls-8" transform="translate(1129.9 554.45)"><tspan x="0" y="0">2060</tspan></text></g></g><path class="cls-2" d="M1370.78,453.81c-30.34-62.51-96.58-103.41-170.1-97.99-96.24,7.09-168.51,90.86-161.42,187.1s90.86,168.51,187.1,161.42c6.72-.5,13.33-1.36,19.8-2.59"/><polygon class="cls-9" points="1378.86 446.93 1376.68 467.4 1360.04 455.28 1378.86 446.93"/><path class="cls-5" d="M1144.33,307.57c-39.57,12.64-74.74,35.57-102.16,65.79"/><path class="cls-4" d="M1284.14,306.81c-18.01-5.52-36.98-8.93-56.65-9.94-23.68-1.22-46.73,1.13-68.61,6.57"/><path class="cls-4" d="M1398.65,385.01c-25.34-31.89-58.89-57.11-97.66-72.33"/><path class="cls-3" d="M1449.3,525.12c-.99-45.51-15.11-88.1-38.86-123.89"/><path class="cls-3" d="M1401.6,672.11c27.59-36.18,44.93-80.77,47.44-129.64"/><path class="cls-3" d="M1283.99,754.13c41.73-12.79,78.69-36.99,107.02-69.12"/><path class="cls-5" d="M1132.3,749.11c22.22,8.45,46.12,13.62,71.14,14.91,21.52,1.11,42.51-.73,62.58-5.16"/><path class="cls-5" d="M1018.6,656.76c23.75,36.94,57.65,66.89,98,85.71"/><path class="cls-5" d="M981.89,518.42c-2.35,45.56,8.51,88.75,29.22,125.85"/><path class="cls-5" d="M1031.88,385.5c-25.43,32.16-42.65,71.25-48.29,114.26"/><circle class="cls-13" cx="466.76" cy="530.44" r="201.91"/><g class="cls-6"><g class="cls-6"><text class="cls-8" transform="translate(383.46 554.45)"><tspan x="0" y="0">2020</tspan></text></g></g><path class="cls-2" d="M416.89,697.69c19.67,5.82,40.71,8.25,62.38,6.65,6.72-.5,13.33-1.36,19.8-2.59"/><polygon class="cls-9" points="416.54 708.28 402.87 692.89 423.04 688.75 416.54 708.28"/><g class="cls-12"><path class="cls-4" d="M397.23,307.57c-39.57,12.64-74.74,35.57-102.16,65.79"/><path class="cls-4" d="M537.04,306.81c-18.01-5.52-36.98-8.93-56.65-9.94-23.68-1.22-46.73,1.13-68.61,6.57"/><path class="cls-4" d="M651.55,385.01c-25.34-31.89-58.89-57.11-97.66-72.33"/><path class="cls-4" d="M702.21,525.12c-.99-45.51-15.11-88.1-38.86-123.89"/><path class="cls-4" d="M654.51,672.11c27.59-36.18,44.93-80.77,47.44-129.64"/><path class="cls-4" d="M536.9,754.13c41.73-12.79,78.69-36.99,107.02-69.12"/><path class="cls-4" d="M385.21,749.11c22.22,8.45,46.12,13.62,71.14,14.91,21.52,1.11,42.51-.73,62.58-5.16"/><path class="cls-4" d="M271.51,656.76c23.75,36.94,57.65,66.89,98,85.71"/><path class="cls-4" d="M234.79,518.42c-2.35,45.56,8.51,88.75,29.22,125.85"/><path class="cls-4" d="M284.78,385.5c-25.43,32.16-42.65,71.25-48.29,114.26"/></g></svg>